<svg width="32" height="32" viewBox="0 0 32 32" fill="none" xmlns="http://www.w3.org/2000/svg">
<path d="M26 19.8C25.5 19.3 24.9 18.9 24.2 18.8C23.3 18.7 22.3 18.4 21.4 18.1C20.9 17.9 20.3 17.9 19.8 18C19.3 18.1 18.8 18.4 18.4 18.8L17.5 19.7C15.4 18.4 13.6 16.6 12.2 14.4L13.1 13.5C13.5 13.1 13.8 12.6 13.9 12.1C14 11.6 14 11 13.8 10.5C13.5 9.59995 13.2 8.69995 13.1 7.69995C13 6.99995 12.7 6.39995 12.1 5.89995C11.6 5.39995 10.9 5.29995 10.2 5.19995H7.1C6.7 5.29995 6.3 5.39995 6 5.49995C5.6 5.69995 5.3 5.89995 5 6.19995C4.7 6.49995 4.5 6.79995 4.4 7.19995C4.3 7.59995 4.2 7.99995 4.3 8.39995C4.7 11.8 5.8 15 7.6 17.8C9.3 20.4 11.5 22.6999 14.1 24.2999C16.9 26.0999 20.2 27.3 23.5 27.6C23.6 27.6 23.7 27.6 23.8 27.6C24.1 27.6 24.4 27.6 24.7 27.4C25.1 27.3 25.4 27.0999 25.7 26.7999C26 26.5 26.2 26.1999 26.4 25.7999C26.6 25.4 26.6 25 26.6 24.7V21.6C26.7 21 26.5 20.4 26 19.8ZM25.2 21.7V24.9C25.2 25.1 25.2 25.3 25.1 25.4C25 25.6 24.9 25.7 24.8 25.9C24.7 26.1 24.5 26.1 24.3 26.2C24.1 26.3 23.9 26.2999 23.7 26.2999C20.6 26 17.6 24.9 14.9 23.2C12.5 21.7 10.4 19.6 8.8 17.1C7.1 14.5 6 11.4 5.7 8.29995C5.7 8.09995 5.7 7.89995 5.8 7.69995C5.9 7.49995 6 7.39995 6.1 7.19995C6.2 7.09995 6.4 6.99995 6.6 6.89995C6.8 6.79995 7 6.79995 7.1 6.79995H10.3C10.6 6.79995 10.9 6.89995 11.2 7.09995C11.5 7.29995 11.6 7.59995 11.7 7.89995C11.8 8.99995 12.1 9.99995 12.5 11C12.6 11.2 12.6 11.5 12.6 11.8C12.5 12.1 12.4 12.3 12.2 12.5L10.9 13.8C10.7 14 10.6 14.4 10.8 14.7C12.4 17.5 14.6 19.6999 17.4 21.2999C17.7 21.5 18.1 21.4 18.3 21.2L19.6 19.9C19.8 19.7 20 19.6 20.3 19.5C20.6 19.5 20.8 19.5 21.1 19.6C22.1 20 23.2 20.2 24.2 20.4C24.5 20.4 24.8 20.6 25 20.9C25.1 21.1 25.2 21.4 25.2 21.7Z" fill="#1E252D"/>
<path d="M17.9 4.89995C17.9 4.49995 18.3 4.19995 18.7 4.19995C21 4.49995 23.2 5.49995 24.8 7.09995C26.4 8.69995 27.5 10.9 27.7 13.2C27.7 13.6 27.5 14 27 14C26.6 14 26.2 13.8 26.2 13.3C26 11.3 25.1 9.49995 23.7 8.09995C22.3 6.69995 20.5 5.79995 18.5 5.59995C18.1 5.69995 17.8 5.29995 17.9 4.89995ZM17.9 9.09995C18 8.69995 18.4 8.39995 18.8 8.49995C20 8.69995 21.1 9.29995 21.9 10.1C22.7 10.9 23.3 12 23.6 13.2C23.7 13.6 23.4 14 23 14.1C22.6 14.2 22.2 13.9 22.1 13.5C21.9 12.6 21.5 11.8 20.9 11.2C20.3 10.6 19.5 10.1 18.6 9.99995C18.1 9.89995 17.8 9.49995 17.9 9.09995Z" fill="#1E252D"/>
</svg>
